<svg width="30" height="35" viewBox="0 0 30 35" fill="none" xmlns="http://www.w3.org/2000/svg">
<path d="M27 17.5V7.34212C27.0001 7.21385 26.9749 7.08683 26.9258 6.96832C26.8767 6.84981 26.8048 6.74214 26.714 6.6515L21.5985 1.536C21.4158 1.3531 21.168 1.25023 20.9095 1.25H1.975C1.71641 1.25 1.46842 1.35272 1.28557 1.53557C1.10272 1.71842 1 1.96641 1 2.225V32.775C1 33.0336 1.10272 33.2816 1.28557 33.4644C1.46842 33.6473 1.71641 33.75 1.975 33.75H12.375M20.5 1.25V6.775C20.5 7.03359 20.6027 7.28158 20.7856 7.46443C20.9684 7.64728 21.2164 7.75 21.475 7.75H27M20.9972 25.8086L22.4744 22.6772C22.5143 22.5877 22.5792 22.5117 22.6614 22.4583C22.7436 22.405 22.8395 22.3766 22.9375 22.3766C23.0355 22.3766 23.1314 22.405 23.2136 22.4583C23.2958 22.5117 23.3607 22.5877 23.4006 22.6772L24.8794 25.8086L28.1814 26.314C28.6055 26.379 28.7745 26.925 28.469 27.237L26.0786 29.6745L26.6425 33.1162C26.714 33.5582 26.2704 33.8963 25.8918 33.6866L22.9375 32.0616L19.9832 33.6866C19.603 33.8963 19.161 33.5582 19.2325 33.1162L19.7964 29.6745L17.4076 27.237C17.0989 26.925 17.2695 26.379 17.6936 26.314L20.9972 25.8102V25.8086Z" stroke="white" stroke-width="2" stroke-linecap="round" stroke-linejoin="round"/>
</svg>
