<svg width="33" height="33" viewBox="0 0 33 33" fill="none" xmlns="http://www.w3.org/2000/svg">
<path d="M6.25 15.5H26.75C29.5805 15.5 31.875 13.2055 31.875 10.375V6.95837C31.875 4.12791 29.5805 1.83337 26.75 1.83337H6.25C3.41954 1.83337 1.125 4.12791 1.125 6.95837V10.375C1.125 13.2055 3.41954 15.5 6.25 15.5ZM6.25 15.5C4.89077 15.5 3.5872 16.04 2.62608 17.0011C1.66495 17.9622 1.125 19.2658 1.125 20.625V24.0417C1.125 25.4009 1.66495 26.7045 2.62608 27.6656C3.5872 28.6268 4.89077 29.1667 6.25 29.1667H16.5M6.25 15.5L24.1875 15.5M26.7517 29.1667C28.6387 29.1667 30.1684 27.637 30.1684 25.75C30.1684 23.8631 28.6387 22.3334 26.7517 22.3334M26.7517 29.1667C24.8647 29.1667 23.335 27.637 23.335 25.75C23.335 23.8631 24.8647 22.3334 26.7517 22.3334M26.7517 29.1667V31.7292M26.7517 22.3334V19.7709M31.9297 22.7605L29.7105 24.0417M23.7946 27.4584L21.5737 28.7396M21.5737 22.7605L23.7946 24.0417M29.7105 27.4584L31.9314 28.7396M7.95833 8.66671V8.68379M7.95833 22.3334V22.3505" stroke="white" stroke-width="2" stroke-linecap="round" stroke-linejoin="round"/>
</svg>
