<svg width="41" height="39" viewBox="0 0 41 39" fill="none" xmlns="http://www.w3.org/2000/svg">
<path d="M35.5333 15.795H33.581C33.3662 15.795 33.1905 15.9705 33.1905 16.185V18.135C33.1905 18.3495 33.3662 18.525 33.581 18.525H35.5333C35.7481 18.525 35.9238 18.3495 35.9238 18.135V16.185C35.9238 15.9705 35.7481 15.795 35.5333 15.795ZM37.0952 10.725H31.2381V0.39C31.2381 0.1755 31.0624 0 30.8476 0H10.1524C9.93762 0 9.7619 0.1755 9.7619 0.39V10.725H3.90476C1.74738 10.725 0 12.4702 0 14.625V30.615C0 31.4779 0.697976 32.175 1.5619 32.175H9.7619V38.61C9.7619 38.8245 9.93762 39 10.1524 39H30.8476C31.0624 39 31.2381 38.8245 31.2381 38.61V32.175H39.4381C40.302 32.175 41 31.4779 41 30.615V14.625C41 12.4702 39.2526 10.725 37.0952 10.725ZM13.081 3.315H27.919V10.725H13.081V3.315ZM27.919 35.685H13.081V22.23H27.919V35.685ZM37.681 28.86H31.2381V18.915H9.7619V28.86H3.31905V14.625C3.31905 14.3032 3.58262 14.04 3.90476 14.04H37.0952C37.4174 14.04 37.681 14.3032 37.681 14.625V28.86Z" fill="white"/>
</svg>
