<svg width="36" height="36" viewBox="0 0 36 36" fill="none" xmlns="http://www.w3.org/2000/svg">
<path d="M33.4286 19.2857V25.7143H2.57143V5.14286H15.4286V2.57143H2.57143C1.88944 2.57143 1.23539 2.84235 0.753154 3.32458C0.270917 3.80682 0 4.46087 0 5.14286V25.7143C0 26.3963 0.270917 27.0503 0.753154 27.5326C1.23539 28.0148 1.88944 28.2857 2.57143 28.2857H12.8571V33.4286H7.71429V36H28.2857V33.4286H23.1429V28.2857H33.4286C34.1106 28.2857 34.7646 28.0148 35.2468 27.5326C35.7291 27.0503 36 26.3963 36 25.7143V19.2857H33.4286ZM20.5714 33.4286H15.4286V28.2857H20.5714V33.4286Z" fill="white"/>
<path d="M36 10.2857V7.71429H33.2987C33.1329 6.90946 32.8133 6.14418 32.3576 5.46043L34.2733 3.54471L32.4553 1.72671L30.5396 3.64243C29.8558 3.18666 29.0905 2.8671 28.2857 2.70129V0H25.7143V2.70129C24.9095 2.8671 24.1442 3.18666 23.4604 3.64243L21.5447 1.72671L19.7267 3.54471L21.6424 5.46043C21.1867 6.14418 20.8671 6.90946 20.7013 7.71429H18V10.2857H20.7013C20.8671 11.0905 21.1867 11.8558 21.6424 12.5396L19.7267 14.4553L21.5447 16.2733L23.4604 14.3576C24.1442 14.8133 24.9095 15.1329 25.7143 15.2987V18H28.2857V15.2987C29.0905 15.1329 29.8558 14.8133 30.5396 14.3576L32.4553 16.2733L34.2733 14.4553L32.3576 12.5396C32.8133 11.8558 33.1329 11.0905 33.2987 10.2857H36ZM27 12.8571C26.2371 12.8571 25.4914 12.6309 24.8571 12.2071C24.2228 11.7833 23.7284 11.1809 23.4365 10.4761C23.1445 9.77126 23.0681 8.99572 23.217 8.24751C23.3658 7.4993 23.7332 6.81202 24.2726 6.27259C24.812 5.73316 25.4993 5.3658 26.2475 5.21697C26.9957 5.06814 27.7713 5.14453 28.4761 5.43646C29.1809 5.7284 29.7833 6.22278 30.2071 6.85709C30.6309 7.49139 30.8571 8.23713 30.8571 9C30.8561 10.0227 30.4494 11.0032 29.7263 11.7263C29.0032 12.4494 28.0227 12.8561 27 12.8571Z" fill="white"/>
</svg>
