<svg width="26" height="30" viewBox="0 0 26 30" fill="none" xmlns="http://www.w3.org/2000/svg">
<path d="M0.00329946 2.14286C0.00329946 0.957589 0.971283 0 2.16942 0H23.8306C24.67 0 25.4349 0.482143 25.7936 1.23214C26.1524 1.98214 26.0373 2.87277 25.4958 3.51562L6.79272 25.7143H23.8306C25.0287 25.7143 25.9967 26.6719 25.9967 27.8571C25.9967 29.0424 25.0287 30 23.8306 30H2.16942C1.33005 30 0.565136 29.5179 0.206373 28.7679C-0.15239 28.0179 -0.0373152 27.1272 0.504214 26.4844L19.2073 4.28571H2.16942C0.971283 4.28571 0.00329946 3.32812 0.00329946 2.14286Z" fill="white"/>
</svg>
